<?xml version="1.0" encoding="utf-8"?>
<!-- Generator: Adobe Illustrator 20.1.0, SVG Export Plug-In . SVG Version: 6.00 Build 0)  -->
<svg version="1.1" id="Layer_1" xmlns="http://www.w3.org/2000/svg" xmlns:xlink="http://www.w3.org/1999/xlink" x="0px" y="0px"
	 viewBox="0 0 100.9 100.9" style="enable-background:new 0 0 100.9 100.9;" xml:space="preserve">
<style type="text/css">
	.st0{fill:none;}
</style>
<title>icon_arrow-down</title>
<g>
	<path d="M50.4,66.8c-2.3,0-4.5-0.8-6.3-2.5L14.3,38.9c-1.9-1.6-2.1-4.4-0.5-6.3c1.6-1.9,4.4-2.1,6.3-0.5l30.1,25.5l0.1,0.1
		c0,0,0.1,0,0.2,0l0.3-0.3l30-25.4c1.9-1.6,4.7-1.4,6.3,0.5c1.6,1.9,1.4,4.7-0.5,6.3L56.7,64.2C55,65.9,52.7,66.7,50.4,66.8z"/>
	<rect class="st0" width="100.9" height="100.9"/>
</g>
</svg>
