<?xml version="1.0" encoding="utf-8"?>
<!-- Generator: Adobe Illustrator 16.0.0, SVG Export Plug-In . SVG Version: 6.00 Build 0)  -->
<!DOCTYPE svg PUBLIC "-//W3C//DTD SVG 1.1//EN" "http://www.w3.org/Graphics/SVG/1.1/DTD/svg11.dtd">
<svg version="1.1" id="Layer_1" xmlns="http://www.w3.org/2000/svg" xmlns:xlink="http://www.w3.org/1999/xlink" x="0px" y="0px"
	 width="70px" height="70px" viewBox="0 0 70 70" enable-background="new 0 0 70 70" xml:space="preserve">
<title>icon_arrow-down</title>
<g>
	<path d="M35.072,23.657c1.596,0.005,3.121,0.565,4.365,1.749l20.616,17.689c1.314,1.114,1.447,3.057,0.333,4.372
		c-1.114,1.313-3.058,1.446-4.372,0.332L35.189,30.04l-0.069-0.068c0,0-0.069,0-0.139,0l-0.208,0.206L13.902,47.73
		c-1.321,1.105-3.264,0.96-4.369-0.361c-1.106-1.322-0.961-3.264,0.361-4.37l20.801-17.552
		C31.879,24.271,33.477,23.722,35.072,23.657z"/>
	<rect x="0" y="0" transform="matrix(1 0.0033 -0.0033 1 0.1154 -0.115)" fill="none" width="70" height="70"/>
</g>
</svg>
